<?xml version="1.0" encoding="UTF-8"?>
<svg xmlns="http://www.w3.org/2000/svg" viewBox="0 0 240.94488 137.28346">
  <defs>
    <style>
      .uuid-f97c1ab5-4f86-4dcd-b1d0-7a529f80a764 {
        stroke: #000;
        stroke-linecap: round;
        stroke-miterlimit: 10;
      }

      .uuid-f97c1ab5-4f86-4dcd-b1d0-7a529f80a764, .uuid-74c929b1-379a-45f3-995a-caf0a1e78710 {
        fill: none;
      }
    </style>
  </defs>
  <g id="uuid-f1bdd896-2676-487d-8df7-53a095c01d17" data-name="Ebene 2 Kopie">
    <g>
      <path d="M86.45361,17.10547v2.41064c0,.99561,.20361,1.05566,1.04346,1.0918,.07178,.07178,.07178,.32373,0,.39551-.41992-.01172-1.00732-.02393-1.54736-.02393-.53955,0-1.13916,.01221-1.55908,.02393-.07178-.07178-.07178-.32373,0-.39551,.83936-.03613,1.04346-.09619,1.04346-1.0918v-4.80908c0-.99561-.2041-1.05566-1.04346-1.09131-.07178-.07227-.07178-.32422,0-.396,.47998,.01221,1.16357,.02393,1.54736,.02393h3.05811c.2998,0,.35986-.01172,.56396-.04785,.03564,0,.04785,.01172,.04785,.03613,.02393,.0957,.20361,1.24707,.26367,1.73877-.0957,.03613-.22754,.06006-.37158,.06006-.26416-.82764-.56396-1.30713-1.83496-1.30713h-.54004c-.52734,0-.67139,.11963-.67139,.76758v2.15869h1.11523c1.01953,0,1.05566-.15576,1.09131-.81543,.07227-.07227,.32422-.07227,.396,0-.01221,.31152-.02393,.62354-.02393,1.03125s.01172,.75586,.02393,1.05566c-.07178,.07178-.32373,.07178-.396,0-.03564-.54004-.07178-.81592-1.09131-.81592h-1.11523Z"/>
      <path d="M93.89404,17.27344c-.10791,0-.17969-.0957-.17969-.19189,0-.17969,.15576-.40771,.2998-.40771h4.70117c.12012,0,.16797,.10791,.16797,.2041,0,.11963-.16797,.39551-.32373,.39551h-4.66553Zm0,1.99121c-.10791,0-.17969-.09619-.17969-.19189,0-.18018,.15576-.4082,.2998-.4082h4.70117c.12012,0,.16797,.1084,.16797,.2041,0,.12012-.16797,.396-.32373,.396h-4.66553Z"/>
    </g>
    <g>
      <path d="M110.3877,14.31299c-.65967-.65967-1.05518-1.85889-1.05518-3.14209,0-2.375,1.12744-3.79004,2.31445-3.79004,.64795,0,1.15137,.35986,1.46338,.7793,.52783,.6958,.81543,1.71533,.81543,2.90283,0,2.81836-1.40283,3.75391-2.32666,3.75391-.46777,0-.87549-.16797-1.21143-.50391Zm-.01172-3.01025c0,1.04346,.11963,3.09424,1.23535,3.09424,.21582,0,.80322-.10791,1.06738-1.09131,.16797-.61182,.20361-1.36719,.20361-2.4707,0-1.60693-.32373-2.51855-.69531-2.83057-.14404-.13184-.33594-.20361-.54004-.20361-.53955,0-1.271,.55127-1.271,3.50195Z"/>
      <path d="M115.76416,13.54541c.34766,0,.63574,.28809,.63574,.63574s-.28809,.63574-.63574,.63574-.63574-.28809-.63574-.63574,.28809-.63574,.63574-.63574Z"/>
      <path d="M119.51904,10.60693c-.43164,0-.88721,.04785-1.52295,.28809l.40771-3.4541c.41992,.03564,.85156,.05957,1.29541,.05957,.63525,0,1.2832-.05957,1.9668-.13184l.08398,.04834-.19141,.81543c-.49219,.04785-.8999,.07178-1.25977,.07178-.57568,0-.95947-.06006-1.40332-.10791l-.23975,2.00293c.21582-.08398,.65967-.19189,1.17529-.19189,1.34375,0,2.14746,1.04346,2.14746,2.20703,0,1.51074-1.05615,2.61426-2.54346,2.61426-.68359,0-1.70312-.40771-1.70312-.89941,0-.23975,.22803-.44385,.45605-.44385,.25195,0,.45557,.18018,.61133,.38379,.18018,.23975,.33594,.53955,.79199,.53955,.71924,0,1.31885-.83936,1.31885-1.97852,0-1.30762-.61133-1.82324-1.39111-1.82324Z"/>
      <path d="M110.3877,28.71289c-.65967-.65967-1.05518-1.85889-1.05518-3.14209,0-2.375,1.12744-3.79004,2.31445-3.79004,.64795,0,1.15137,.35986,1.46338,.7793,.52783,.6958,.81543,1.71533,.81543,2.90283,0,2.81836-1.40283,3.75391-2.32666,3.75391-.46777,0-.87549-.16797-1.21143-.50391Zm-.01172-3.01025c0,1.04346,.11963,3.09424,1.23535,3.09424,.21582,0,.80322-.10791,1.06738-1.09131,.16797-.61182,.20361-1.36719,.20361-2.4707,0-1.60742-.32373-2.51855-.69531-2.83057-.14404-.13184-.33594-.20361-.54004-.20361-.53955,0-1.271,.55127-1.271,3.50195Z"/>
      <path d="M115.76416,27.94531c.34766,0,.63574,.2876,.63574,.63574,0,.34766-.28809,.63574-.63574,.63574s-.63574-.28809-.63574-.63574c0-.34814,.28809-.63574,.63574-.63574Z"/>
      <path d="M121.58203,28.7251c.07227,.07178,.07227,.32373,0,.39551-.59961-.01172-.8877-.02393-1.46338-.02393-.64746,0-1.0791,.01221-1.66699,.02393-.07178-.07178-.07178-.32373,0-.39551,.83984-.03613,1.16357-.09619,1.16357-1.0918v-3.90967c0-.40771-.03613-.6958-.24023-.6958-.22754,0-.4917,.07227-1.04346,.2998-.10791-.07178-.15576-.19189-.17969-.32373,1.05566-.4917,1.69092-.7915,2.35059-1.19922,.04834,0,.07227,0,.07227,.06006-.02393,.15576-.03613,.88721-.03613,1.60693v4.16162c0,.99561,.2041,1.05566,1.04346,1.0918Z"/>
    </g>
    <g>
      <path d="M139.97266,14.3252c.07227,.07178,.07227,.32373,0,.39551-.59961-.01172-.8877-.02393-1.46289-.02393-.64746,0-1.0791,.01221-1.66699,.02393-.07227-.07178-.07227-.32373,0-.39551,.83984-.03613,1.16309-.09619,1.16309-1.0918v-3.90967c0-.40771-.03613-.6958-.24023-.6958-.22754,0-.49121,.07227-1.04297,.2998-.1084-.07178-.15625-.19189-.17969-.32373,1.05566-.4917,1.69043-.7915,2.35059-1.19922,.04785,0,.07227,0,.07227,.06006-.02441,.15576-.03613,.88721-.03613,1.60693v4.16162c0,.99561,.2041,1.05566,1.04297,1.0918Z"/>
      <path d="M142.375,13.54541c.34766,0,.63574,.2876,.63574,.63574,0,.34766-.28809,.63574-.63574,.63574s-.63574-.28809-.63574-.63574c0-.34814,.28809-.63574,.63574-.63574Z"/>
      <path d="M145.21777,14.31299c-.65918-.65967-1.05469-1.85889-1.05469-3.14209,0-2.375,1.12695-3.79004,2.31445-3.79004,.64746,0,1.15137,.35986,1.46289,.7793,.52832,.6958,.81543,1.71533,.81543,2.90283,0,2.81836-1.40234,3.75391-2.32617,3.75391-.46777,0-.87598-.16797-1.21191-.50391Zm-.01172-3.01025c0,1.04346,.12012,3.09424,1.23535,3.09424,.21582,0,.80371-.10791,1.06738-1.09131,.16797-.61182,.2041-1.36719,.2041-2.4707,0-1.60742-.32422-2.51855-.69531-2.83057-.14453-.13184-.33594-.20361-.54004-.20361-.54004,0-1.27148,.55127-1.27148,3.50195Z"/>
      <path d="M136.99805,28.71289c-.65918-.65967-1.05469-1.85889-1.05469-3.14209,0-2.375,1.12695-3.79004,2.31445-3.79004,.64746,0,1.15137,.35986,1.46289,.7793,.52832,.6958,.81543,1.71533,.81543,2.90283,0,2.81836-1.40234,3.75391-2.32617,3.75391-.46777,0-.87598-.16797-1.21191-.50391Zm-.01172-3.01025c0,1.04346,.12012,3.09424,1.23535,3.09424,.21582,0,.80371-.10791,1.06738-1.09131,.16797-.61182,.2041-1.36719,.2041-2.4707,0-1.60693-.32422-2.51855-.69531-2.83057-.14453-.13184-.33594-.20361-.54004-.20361-.54004,0-1.27148,.55127-1.27148,3.50195Z"/>
      <path d="M142.375,27.94531c.34766,0,.63574,.28809,.63574,.63574s-.28809,.63574-.63574,.63574-.63574-.28809-.63574-.63574,.28809-.63574,.63574-.63574Z"/>
      <path d="M146.58594,21.78076c.9707,0,2.02637,.52783,2.02637,1.82275,0,.91162-.51562,1.43945-1.19922,2.09912l-1.21094,1.16309c-.06055,.06006-.8877,.87549-.8877,1.45117h2.13477c.43164,0,.63574-.2998,.83887-1.15137,.12012-.02393,.27637,0,.34863,.06006-.0127,.35986-.13184,1.25928-.28809,1.89502,0,0-.55176-.02393-.93555-.02393h-2.09863c-.38379,0-.99609,.02393-.99609,.02393,0-.70752,.19238-1.2832,1.36719-2.48242l.8877-.87549c.70801-.71973,.9834-1.34326,.9834-2.11084,0-1.15137-.61133-1.45117-1.04297-1.45117-.87598,0-1.1875,.43164-1.1875,.73145,0,.0957,.07227,.20361,.0957,.2876,.02441,.08398,.04785,.15625,.04785,.25195,0,.26416-.35938,.47998-.56348,.47998-.25195,0-.47949-.21582-.47949-.46777,0-.71973,.82715-1.70312,2.15918-1.70312Z"/>
    </g>
    <path d="M106.85986,32.25684v.58887c-.58838-.80615-1.0791-1.75-1.47217-2.83154-.56104-1.5376-.99316-3.35059-1.29688-5.43945s-.45557-4.25732-.45557-6.50537c0-3.28711,.29785-6.28516,.89355-8.99463,.59619-2.70898,1.37305-4.64697,2.33105-5.81348v.66797c-.479,.72168-.87256,1.70752-1.18018,2.9585-.30762,1.25146-.5376,2.83691-.68945,4.75586-.15186,1.91943-.22754,3.92334-.22754,6.01221,0,2.26953,.06396,4.33154,.19287,6.18701,.10107,1.46338,.22363,2.6377,.36768,3.52344,.14404,.88525,.33789,1.73584,.58154,2.55273,.24316,.81641,.56152,1.5957,.95508,2.33789Z"/>
    <path d="M152.05469,4.12012v-.58887c.58789,.80615,1.07812,1.75,1.47168,2.83154,.56152,1.5376,.99316,3.35059,1.29688,5.43945s.45605,4.25732,.45605,6.50537c0,3.28711-.29883,6.28516-.89453,8.99463-.5957,2.70898-1.37305,4.64697-2.33008,5.81348v-.66797c.47852-.72168,.87207-1.70752,1.17969-2.9585,.30762-1.25146,.53711-2.83691,.68945-4.75586,.15234-1.91943,.22754-3.92334,.22754-6.01221,0-2.26953-.06348-4.33154-.19238-6.18701-.10156-1.46338-.22461-2.6377-.36816-3.52344-.14355-.88525-.33789-1.73584-.58105-2.55273-.24414-.81641-.5625-1.5957-.95508-2.33789Z"/>
    <g>
      <path d="M83.69141,115.24268c.19189,.86377,.25195,1.34326,.27588,1.84717-.13184,.06006-.26367,.08398-.396,.07178-.31152-1.03125-.80322-2.02686-2.54248-2.02686-1.39111,0-2.7583,1.43945-2.7583,3.53809,0,1.58301,1.00732,3.60938,2.90234,3.60938,.64746,0,1.45117-.07129,1.85889-.45508v-1.83496c0-.47998-.32373-.52783-.9834-.57568-.07178-.07178-.07178-.35986,0-.43164,.52783,.01172,1.09131,.02393,1.4873,.02393,.47949,0,.7793-.01221,1.06738-.02393,.07178,.07178,.07178,.35986,0,.43164-.34814,.03613-.55176,.15576-.55176,.57568v1.39062c0,.13184,.06006,.22852,.19189,.33594-.81543,.69629-1.93115,.99609-3.34619,.99609-2.29053,0-3.77783-1.64355-3.77783-3.80225,0-2.63818,2.07471-4.20947,4.07764-4.20947,1.33154,0,1.7749,.41992,2.49463,.53955Z"/>
      <path d="M88.79492,118.88867c-.10791,0-.17969-.0957-.17969-.19189,0-.17969,.15576-.40771,.2998-.40771h4.70117c.12012,0,.16797,.10791,.16797,.2041,0,.11963-.16797,.39551-.32373,.39551h-4.66553Zm0,1.99121c-.10791,0-.17969-.09619-.17969-.19189,0-.18018,.15576-.4082,.2998-.4082h4.70117c.12012,0,.16797,.1084,.16797,.2041,0,.12012-.16797,.396-.32373,.396h-4.66553Z"/>
    </g>
    <g>
      <path d="M104.13184,113.6377c-.10791,0-.18018-.10791-.18018-.22803,0-.21582,.15625-.4917,.30029-.4917h2.62646c.11963,0,.16797,.11963,.16797,.23975,0,.14404-.16797,.47998-.32422,.47998h-2.59033Z"/>
      <path d="M112.02588,115.94043c.07178,.07178,.07178,.32373,0,.39551-.59961-.01172-.8877-.02393-1.46338-.02393-.64746,0-1.0791,.01221-1.66699,.02393-.07178-.07178-.07178-.32373,0-.39551,.83936-.03613,1.16357-.09619,1.16357-1.0918v-3.90967c0-.40771-.03613-.6958-.24023-.6958-.22754,0-.4917,.07227-1.04297,.2998-.1084-.07178-.15625-.19189-.18018-.32373,1.05566-.4917,1.69092-.7915,2.35059-1.19922,.04834,0,.07227,0,.07227,.06006-.02393,.15576-.03613,.88721-.03613,1.60693v4.16162c0,.99561,.2041,1.05566,1.04346,1.0918Z"/>
      <path d="M114.42725,115.16064c.34766,0,.63574,.28809,.63574,.63574s-.28809,.63574-.63574,.63574-.63574-.28809-.63574-.63574,.28809-.63574,.63574-.63574Z"/>
      <path d="M118.63867,108.99609c.97119,0,2.02686,.52783,2.02686,1.82275,0,.91162-.51611,1.43945-1.19971,2.09912l-1.21094,1.16309c-.06006,.06006-.8877,.87549-.8877,1.45117h2.13477c.43164,0,.63574-.2998,.83936-1.15137,.12012-.02393,.27588,0,.34814,.06006-.01221,.35986-.13184,1.25928-.28809,1.89502,0,0-.55176-.02393-.93555-.02393h-2.09863c-.38379,0-.99561,.02393-.99561,.02393,0-.70752,.19189-1.2832,1.36719-2.48242l.8877-.87549c.70752-.71973,.9834-1.34326,.9834-2.11084,0-1.15137-.61182-1.45117-1.04346-1.45117-.87549,0-1.18701,.43164-1.18701,.73145,0,.0957,.07178,.20361,.0957,.2876s.04785,.15625,.04785,.25195c0,.26416-.35986,.47998-.56348,.47998-.25195,0-.47998-.21582-.47998-.46777,0-.71973,.82764-1.70312,2.15918-1.70312Z"/>
      <path d="M124.21777,108.99609c.97168,0,2.02734,.52783,2.02734,1.82275,0,.91162-.5166,1.43945-1.2002,2.09912l-1.21094,1.16309c-.05957,.06006-.8877,.87549-.8877,1.45117h2.13477c.43164,0,.63574-.2998,.83984-1.15137,.12012-.02393,.27539,0,.34766,.06006-.01172,.35986-.13184,1.25928-.28809,1.89502,0,0-.55176-.02393-.93555-.02393h-2.09863c-.38379,0-.99512,.02393-.99512,.02393,0-.70752,.19141-1.2832,1.36719-2.48242l.8877-.87549c.70703-.71973,.9834-1.34326,.9834-2.11084,0-1.15137-.6123-1.45117-1.04395-1.45117-.875,0-1.1875,.43164-1.1875,.73145,0,.0957,.07227,.20361,.09668,.2876,.02344,.08398,.04785,.15625,.04785,.25195,0,.26416-.36035,.47998-.56348,.47998-.25195,0-.48047-.21582-.48047-.46777,0-.71973,.82812-1.70312,2.15918-1.70312Z"/>
      <path d="M112.02539,130.34082c.07178,.07129,.07178,.32324,0,.39551-.59961-.01172-.8877-.02441-1.46338-.02441-.64746,0-1.0791,.0127-1.66699,.02441-.07178-.07227-.07178-.32422,0-.39551,.83984-.03613,1.16357-.09668,1.16357-1.0918v-3.91016c0-.40723-.03613-.69531-.24023-.69531-.22754,0-.4917,.07227-1.04346,.2998-.10791-.07227-.15576-.19238-.17969-.32422,1.05566-.49121,1.69092-.79102,2.35059-1.19922,.04834,0,.07227,0,.07227,.06055-.02393,.15527-.03613,.88672-.03613,1.60645v4.16211c0,.99512,.2041,1.05566,1.04346,1.0918Z"/>
      <path d="M114.42725,129.56055c.34766,0,.63574,.28809,.63574,.63574s-.28809,.63574-.63574,.63574-.63574-.28809-.63574-.63574,.28809-.63574,.63574-.63574Z"/>
      <path d="M118.18213,126.62207c-.43164,0-.88721,.04785-1.52295,.28809l.40771-3.4541c.41992,.03613,.85156,.06055,1.29541,.06055,.63525,0,1.2832-.06055,1.9668-.13281l.08398,.04883-.19189,.81543c-.4917,.04785-.89941,.07129-1.25928,.07129-.57568,0-.95947-.05957-1.40332-.10742l-.23975,2.00293c.21582-.08398,.65967-.19238,1.17529-.19238,1.34326,0,2.14697,1.04395,2.14697,2.20703,0,1.51074-1.05566,2.61426-2.54297,2.61426-.68359,0-1.70312-.40723-1.70312-.89941,0-.23926,.22803-.44336,.45605-.44336,.25195,0,.45557,.17969,.61133,.38379,.18018,.23926,.33594,.54004,.79199,.54004,.71924,0,1.31885-.83984,1.31885-1.97949,0-1.30762-.61133-1.82324-1.39111-1.82324Z"/>
      <path d="M122.32324,125.33887c-.13281,.0127-.25195,0-.38379-.03613,.0957-.62305,.22754-1.34277,.23926-1.91895,0-.03516,.01172-.03516,.04785-.03516,.21582,.04785,.19238,.16797,.59961,.16797h2.4707c.45605,0,.71973-.07227,.92383-.13281l.19141,.14453c-1.34277,3.27441-2.00195,5.26465-2.68652,7.30371l-.81543,.03613-.0957-.08398c.81543-1.82324,1.7627-4.16211,2.69824-6.48828h-2.14648c-.38379,0-.7793,.08398-1.04297,1.04297Z"/>
    </g>
    <g>
      <path d="M136.2002,113.6377c-.1084,0-.18066-.1084-.18066-.22803,0-.21582,.15625-.4917,.30078-.4917h2.62598c.12012,0,.16797,.11963,.16797,.23975,0,.14404-.16797,.47998-.32422,.47998h-2.58984Z"/>
      <path d="M141.11914,115.92822c-.65918-.65967-1.05469-1.85889-1.05469-3.14209,0-2.375,1.12695-3.79004,2.31445-3.79004,.64746,0,1.15137,.35986,1.46289,.7793,.52832,.6958,.81543,1.71533,.81543,2.90283,0,2.81836-1.40234,3.75391-2.32617,3.75391-.46777,0-.87598-.16797-1.21191-.50391Zm-.01172-3.01025c0,1.04346,.12012,3.09424,1.23535,3.09424,.21582,0,.80371-.10791,1.06738-1.09131,.16797-.61182,.2041-1.36719,.2041-2.4707,0-1.60742-.32422-2.51855-.69531-2.83057-.14453-.13184-.33594-.20361-.54004-.20361-.54004,0-1.27148,.55127-1.27148,3.50195Z"/>
      <path d="M146.49512,115.16064c.34766,0,.63574,.2876,.63574,.63574,0,.34766-.28809,.63574-.63574,.63574s-.63574-.28809-.63574-.63574c0-.34814,.28809-.63574,.63574-.63574Z"/>
      <path d="M150.70703,108.99609c.9707,0,2.02637,.52783,2.02637,1.82275,0,.91162-.51562,1.43945-1.19922,2.09912l-1.21094,1.16309c-.06055,.06006-.8877,.87549-.8877,1.45117h2.13477c.43164,0,.63574-.2998,.83887-1.15137,.12012-.02393,.27637,0,.34863,.06006-.0127,.35986-.13184,1.25928-.28809,1.89502,0,0-.55176-.02393-.93555-.02393h-2.09863c-.38379,0-.99609,.02393-.99609,.02393,0-.70752,.19238-1.2832,1.36719-2.48242l.8877-.87549c.70801-.71973,.9834-1.34326,.9834-2.11084,0-1.15137-.61133-1.45117-1.04297-1.45117-.87598,0-1.1875,.43164-1.1875,.73145,0,.0957,.07227,.20361,.0957,.2876,.02441,.08398,.04785,.15625,.04785,.25195,0,.26416-.35938,.47998-.56348,.47998-.25195,0-.47949-.21582-.47949-.46777,0-.71973,.82715-1.70312,2.15918-1.70312Z"/>
      <path d="M158.73242,113.87744c0,.14404-.17969,.37158-.34766,.37158h-.82715v1.10352c0,.56348,.25195,.53955,.83984,.58789,.07129,.07178,.07129,.32373,0,.39551-.38379-.01172-.83984-.02393-1.30762-.02393-.55176,0-1.03125,.01221-1.41504,.02393-.07227-.07178-.07227-.32373,0-.39551,.51562-.03613,.9707-.03613,.9707-.58789v-1.10352h-2.44629c-.35938,0-.43164-.32373-.46777-.50342,1.10352-1.71533,2.49512-3.69434,3.25-4.61768,.04785-.06006,.1084-.13184,.19238-.13184h.38379l.02344,.02393c-.02344,.09619-.02344,.56348-.02344,1.16357v3.50195h.99512c.13184,0,.17969,.07178,.17969,.19189Zm-4.37695-.19189h2.29004v-3.4541c-.82715,1.12744-1.67871,2.4707-2.29004,3.4541Z"/>
      <path d="M141.11914,130.32812c-.66016-.65918-1.05566-1.8584-1.05566-3.1416,0-2.375,1.12793-3.79004,2.31445-3.79004,.64844,0,1.15137,.35938,1.46387,.7793,.52734,.69531,.81543,1.71484,.81543,2.90234,0,2.81836-1.40332,3.75391-2.32715,3.75391-.46777,0-.875-.16797-1.21094-.50391Zm-.01172-3.00977c0,1.04297,.11914,3.09375,1.23535,3.09375,.21582,0,.80273-.10742,1.06738-1.09082,.16797-.6123,.20312-1.36719,.20312-2.4707,0-1.60742-.32324-2.51855-.69531-2.83105-.14355-.13184-.33594-.20312-.54004-.20312-.53906,0-1.27051,.55078-1.27051,3.50195Z"/>
      <path d="M146.49512,129.56055c.34766,0,.63574,.28809,.63574,.63574s-.28809,.63574-.63574,.63574-.63574-.28809-.63574-.63574,.28809-.63574,.63574-.63574Z"/>
      <path d="M149.25488,124.72754c0,.22754-.04785,.62402-.46777,.62402-.28809,0-.4082-.24023-.4082-.4082,0-.39551,.50391-1.54688,2.26758-1.54688,.62305,0,1.04297,.20312,1.30664,.46777,.28809,.2998,.37207,.58691,.37207,.94727,0,.63574-.27539,1.12695-1.25977,1.59473l.0127,.02441c.70703,.12012,1.69043,.58789,1.69043,1.89453,0,1.58301-1.27051,2.50684-2.69824,2.50684-.71973,0-1.72656-.32422-1.72656-.80371,0-.19141,.25195-.41992,.50293-.41992,.24023,0,.39648,.14453,.5166,.3125,.14355,.21582,.25098,.49121,.86328,.49121,.41992,0,1.4873-.32324,1.4873-1.91895,0-1.35547-.8877-1.54688-1.57129-1.54688-.15625,0-.37207,0-.57617,.02344l-.05957-.38379c1.1875-.16699,1.88281-1.09082,1.88281-1.69043,0-.76758-.47949-1.0791-.99512-1.0791-.3125,0-1.13965,.14355-1.13965,.91113Z"/>
      <path d="M157.89355,130.34082c.07129,.07129,.07129,.32324,0,.39551-.59961-.01172-.8877-.02441-1.46387-.02441-.64746,0-1.0791,.0127-1.66699,.02441-.07129-.07227-.07129-.32422,0-.39551,.83984-.03613,1.16406-.09668,1.16406-1.0918v-3.91016c0-.40723-.03613-.69531-.24023-.69531-.22754,0-.49219,.07227-1.04395,.2998-.10742-.07227-.15527-.19238-.17969-.32422,1.05566-.49121,1.69141-.79102,2.35059-1.19922,.04883,0,.07227,0,.07227,.06055-.02344,.15527-.03613,.88672-.03613,1.60645v4.16211c0,.99512,.2041,1.05566,1.04395,1.0918Z"/>
    </g>
    <path d="M100.36035,133.87207v.58887c-.58838-.80566-1.0791-1.75-1.47217-2.83105-.56104-1.53809-.99316-3.35059-1.29688-5.43945s-.45557-4.25781-.45557-6.50586c0-3.28711,.29785-6.28516,.89355-8.99463,.59619-2.70898,1.37305-4.64697,2.33105-5.81348v.66797c-.479,.72168-.87256,1.70752-1.18018,2.9585-.30762,1.25146-.5376,2.83691-.68945,4.75586-.15186,1.91943-.22754,3.92334-.22754,6.01221,0,2.27002,.06396,4.33154,.19287,6.18701,.10107,1.46387,.22363,2.6377,.36768,3.52344s.33789,1.73633,.58154,2.55273c.24316,.81641,.56152,1.5957,.95508,2.33789Z"/>
    <path d="M160.55469,105.73535v-.58887c.58789,.80615,1.07812,1.75,1.47168,2.83154,.56152,1.5376,.99316,3.35059,1.29688,5.43945s.45605,4.25732,.45605,6.50537c0,3.28711-.29883,6.28516-.89453,8.99512-.5957,2.70898-1.37305,4.64648-2.33008,5.8125v-.66797c.47852-.7207,.87207-1.70703,1.17969-2.95801s.53711-2.83691,.68945-4.75586,.22754-3.92285,.22754-6.01221c0-2.26953-.06348-4.33154-.19238-6.18701-.10156-1.46338-.22461-2.6377-.36816-3.52344-.14355-.88525-.33789-1.73584-.58105-2.55273-.24414-.81641-.5625-1.5957-.95508-2.33789Z"/>
    <g>
      <path d="M2.82227,68.56592c0-1.24756,.47949-2.42285,1.271-3.1543,.70801-.64795,1.55957-1.01953,2.57861-1.01953,1.47559,0,2.01514,.47949,2.62695,.53955,.11963,.65967,.20361,1.23535,.26367,1.85889-.13184,.07227-.25195,.10791-.396,.06006-.31152-1.03125-.97119-2.01465-2.62646-2.01465-.62354,0-1.31934,.33545-1.91895,1.06738-.43164,.53955-.70752,1.40332-.70752,2.43457,0,1.75098,1.11523,3.57422,2.73438,3.57422,1.11572,0,1.93115-.37207,2.78271-1.30762,.13184,0,.21582,.07227,.27588,.18018-.81592,1.06738-1.8833,1.61914-3.04639,1.61914-2.57861,0-3.83789-1.75146-3.83789-3.83789Z"/>
      <path d="M14.02979,68.57764c-.10791,0-.17969-.0957-.17969-.19189,0-.17969,.15576-.40771,.2998-.40771h4.70117c.12012,0,.16797,.10791,.16797,.2041,0,.11963-.16797,.39551-.32373,.39551h-4.66553Zm0,1.99121c-.10791,0-.17969-.09619-.17969-.19189,0-.18018,.15576-.4082,.2998-.4082h4.70117c.12012,0,.16797,.1084,.16797,.2041,0,.12012-.16797,.396-.32373,.396h-4.66553Z"/>
    </g>
    <g>
      <path d="M34.48877,57.73975c.07178,.07178,.07178,.32373,0,.39551-.59961-.01172-.8877-.02393-1.46338-.02393-.64746,0-1.0791,.01221-1.66699,.02393-.07178-.07178-.07178-.32373,0-.39551,.83936-.03613,1.16357-.09619,1.16357-1.0918v-3.90967c0-.40771-.03613-.6958-.24023-.6958-.22754,0-.4917,.07227-1.04297,.2998-.1084-.07178-.15625-.19189-.18018-.32373,1.05566-.4917,1.69092-.7915,2.35059-1.19922,.04834,0,.07227,0,.07227,.06006-.02393,.15576-.03613,.88721-.03613,1.60693v4.16162c0,.99561,.2041,1.05566,1.04346,1.0918Z"/>
      <path d="M31.51416,72.12744c-.65918-.65967-1.05518-1.85889-1.05518-3.14209,0-2.375,1.12744-3.79004,2.31494-3.79004,.64746,0,1.15137,.35986,1.46289,.7793,.52783,.6958,.81543,1.71533,.81543,2.90283,0,2.81836-1.40283,3.75391-2.32666,3.75391-.46777,0-.87549-.16797-1.21143-.50391Zm-.01172-3.01025c0,1.04346,.12012,3.09424,1.23535,3.09424,.21582,0,.80371-.10791,1.06738-1.09131,.16797-.61182,.20361-1.36719,.20361-2.4707,0-1.60742-.32373-2.51855-.69531-2.83057-.14404-.13184-.33594-.20361-.53955-.20361-.54004,0-1.27148,.55127-1.27148,3.50195Z"/>
      <path d="M34.48877,86.53955c.07178,.07178,.07178,.32373,0,.39551-.59961-.01172-.8877-.02393-1.46338-.02393-.64746,0-1.0791,.01221-1.66699,.02393-.07178-.07178-.07178-.32373,0-.39551,.83936-.03613,1.16357-.09619,1.16357-1.0918v-3.90967c0-.40771-.03613-.6958-.24023-.6958-.22754,0-.4917,.07227-1.04297,.2998-.1084-.07178-.15625-.19189-.18018-.32373,1.05566-.4917,1.69092-.7915,2.35059-1.19922,.04834,0,.07227,0,.07227,.06006-.02393,.15576-.03613,.88721-.03613,1.60693v4.16162c0,.99561,.2041,1.05566,1.04346,1.0918Z"/>
    </g>
    <g>
      <path d="M44.73682,57.72754c-.66016-.65967-1.05566-1.85889-1.05566-3.14209,0-2.375,1.12695-3.79004,2.31445-3.79004,.64746,0,1.15137,.35986,1.46387,.7793,.52734,.6958,.81543,1.71533,.81543,2.90283,0,2.81836-1.40332,3.75391-2.32715,3.75391-.46777,0-.875-.16797-1.21094-.50391Zm-.0127-3.01025c0,1.04346,.12012,3.09424,1.23535,3.09424,.21582,0,.80371-.10791,1.06738-1.09131,.16797-.61182,.2041-1.36719,.2041-2.4707,0-1.60742-.32324-2.51855-.69531-2.83057-.14355-.13184-.33594-.20361-.54004-.20361-.53906,0-1.27148,.55127-1.27148,3.50195Z"/>
      <path d="M47.71045,72.13965c.07227,.07178,.07227,.32373,0,.39551-.59961-.01172-.88672-.02393-1.46289-.02393-.64746,0-1.0791,.01221-1.66699,.02393-.07227-.07178-.07227-.32373,0-.39551,.83984-.03613,1.16309-.09619,1.16309-1.0918v-3.90967c0-.40771-.03516-.6958-.23926-.6958-.22852,0-.49219,.07227-1.04395,.2998-.10742-.07178-.15527-.19189-.17969-.32373,1.05566-.4917,1.69141-.7915,2.35059-1.19922,.04785,0,.07227,0,.07227,.06006-.02441,.15576-.03613,.88721-.03613,1.60693v4.16162c0,.99561,.2041,1.05566,1.04297,1.0918Z"/>
      <path d="M44.73682,86.52734c-.66016-.65967-1.05566-1.85889-1.05566-3.14209,0-2.375,1.12695-3.79004,2.31445-3.79004,.64746,0,1.15137,.35986,1.46387,.7793,.52734,.6958,.81543,1.71533,.81543,2.90283,0,2.81836-1.40332,3.75391-2.32715,3.75391-.46777,0-.875-.16797-1.21094-.50391Zm-.0127-3.01025c0,1.04346,.12012,3.09424,1.23535,3.09424,.21582,0,.80371-.10791,1.06738-1.09131,.16797-.61182,.2041-1.36719,.2041-2.4707,0-1.60742-.32324-2.51855-.69531-2.83057-.14355-.13184-.33594-.20361-.54004-.20361-.53906,0-1.27148,.55127-1.27148,3.50195Z"/>
    </g>
    <path d="M27.85352,88.18604v.81787c-.58838-1.12012-1.0791-2.43066-1.47217-3.93311-.56104-2.13623-.99316-4.65527-1.29688-7.55713s-.45557-5.91406-.45557-9.03711c0-4.56641,.29785-8.73145,.89355-12.49512,.59619-3.76367,1.37305-6.45557,2.33105-8.07617v.92822c-.479,1.00195-.87256,2.37158-1.18018,4.10986s-.5376,3.94043-.68945,6.60645c-.15186,2.6665-.22754,5.45068-.22754,8.35254,0,3.15234,.06396,6.01758,.19287,8.59521,.10107,2.03271,.22363,3.66406,.36768,4.89404s.33789,2.41211,.58154,3.54639c.24316,1.13428,.56152,2.2168,.95508,3.24805Z"/>
    <path d="M51.04736,49.09766v-.81787c.58838,1.12012,1.0791,2.43066,1.47217,3.93311,.56104,2.13623,.99316,4.65527,1.29688,7.55713s.45557,5.91406,.45557,9.03711c0,4.56641-.29785,8.73145-.89355,12.49512-.59619,3.76367-1.37305,6.45557-2.33105,8.07617v-.92822c.479-1.00195,.87256-2.37158,1.18018-4.10986s.5376-3.94043,.68945-6.60645c.15186-2.6665,.22754-5.45068,.22754-8.35254,0-3.15234-.06396-6.01758-.19287-8.59521-.10107-2.03271-.22363-3.66406-.36768-4.89404s-.33789-2.41211-.58154-3.54639c-.24316-1.13428-.56152-2.2168-.95508-3.24805Z"/>
    <g>
      <path d="M176.94824,66.26318c-.10742,.08398-.26367,.0957-.39551,.07178-.23926-.7915-.61133-1.53516-1.77441-1.53516-.70801,0-1.31934,.67188-1.31934,1.34326,0,1.00732,1.19922,1.46338,1.91895,1.72705,.9834,.37158,1.94238,.93555,1.94238,2.20703,0,.76758-.43164,1.49902-1.12695,1.93066-.41992,.26367-.93555,.396-1.47559,.396-1.06738,0-1.40332-.27588-2.15918-.27588-.14355-.58789-.19141-.89941-.23926-1.82324,.12012-.06006,.23926-.08398,.39551-.03613,.26367,1.1875,.9834,1.70312,2.09863,1.70312,.95996,0,1.5-.50342,1.5-1.4751,0-1.17529-.8877-1.51123-1.60742-1.78711-1.05566-.40771-2.09863-.9834-2.09863-2.24268,0-1.271,1.06738-2.07471,2.27832-2.07471,1.17578,0,1.15137,.22803,1.84668,.32373,.12012,.63574,.16797,.97168,.21582,1.54736Z"/>
      <path d="M181.71484,68.57764c-.1084,0-.17969-.0957-.17969-.19189,0-.17969,.15527-.40771,.2998-.40771h4.70117c.12012,0,.16797,.10791,.16797,.2041,0,.11963-.16797,.39551-.32422,.39551h-4.66504Zm0,1.99121c-.1084,0-.17969-.09619-.17969-.19189,0-.18018,.15527-.4082,.2998-.4082h4.70117c.12012,0,.16797,.1084,.16797,.2041,0,.12012-.16797,.396-.32422,.396h-4.66504Z"/>
    </g>
    <g>
      <path d="M199.91602,57.00488c-.66016-.65967-1.05566-1.85889-1.05566-3.14209,0-2.375,1.12695-3.79004,2.31445-3.79004,.64746,0,1.15137,.35986,1.46387,.7793,.52734,.6958,.81543,1.71533,.81543,2.90283,0,2.81836-1.40332,3.75391-2.32715,3.75391-.46777,0-.875-.16797-1.21094-.50391Zm-.0127-3.01025c0,1.04346,.12012,3.09424,1.23535,3.09424,.21582,0,.80371-.10791,1.06738-1.09131,.16797-.61182,.2041-1.36719,.2041-2.4707,0-1.60742-.32324-2.51855-.69531-2.83057-.14355-.13184-.33594-.20361-.54004-.20361-.53906,0-1.27148,.55127-1.27148,3.50195Z"/>
      <path d="M205.29199,56.2373c.34766,0,.63574,.2876,.63574,.63574,0,.34766-.28809,.63574-.63574,.63574s-.63574-.28809-.63574-.63574c0-.34814,.28809-.63574,.63574-.63574Z"/>
      <path d="M209.04688,53.29883c-.43164,0-.8877,.04785-1.52344,.28809l.4082-3.4541c.41992,.03564,.85156,.06006,1.29492,.06006,.63574,0,1.2832-.06006,1.9668-.13232l.08398,.04834-.19141,.81543c-.49219,.04785-.89941,.07178-1.25977,.07178-.5752,0-.95898-.06006-1.40332-.10791l-.23926,2.00293c.21582-.08398,.65918-.19189,1.1748-.19189,1.34375,0,2.14746,1.04346,2.14746,2.20703,0,1.51074-1.05566,2.61426-2.54297,2.61426-.68359,0-1.70312-.40771-1.70312-.89941,0-.23975,.22852-.44385,.45605-.44385,.25195,0,.45605,.18018,.61133,.38379,.17969,.23975,.33594,.54004,.79199,.54004,.71973,0,1.31934-.83984,1.31934-1.979,0-1.30762-.6123-1.82324-1.3916-1.82324Z"/>
      <path d="M199.91602,71.40479c-.66016-.65967-1.05566-1.85889-1.05566-3.14209,0-2.375,1.12695-3.79004,2.31445-3.79004,.64746,0,1.15137,.35986,1.46387,.7793,.52734,.6958,.81543,1.71533,.81543,2.90283,0,2.81836-1.40332,3.75391-2.32715,3.75391-.46777,0-.875-.16797-1.21094-.50391Zm-.0127-3.01025c0,1.04346,.12012,3.09424,1.23535,3.09424,.21582,0,.80371-.10791,1.06738-1.09131,.16797-.61182,.2041-1.36719,.2041-2.4707,0-1.60693-.32324-2.51855-.69531-2.83057-.14355-.13184-.33594-.20361-.54004-.20361-.53906,0-1.27148,.55127-1.27148,3.50195Z"/>
      <path d="M205.29199,70.63721c.34766,0,.63574,.28809,.63574,.63574s-.28809,.63574-.63574,.63574-.63574-.28809-.63574-.63574,.28809-.63574,.63574-.63574Z"/>
      <path d="M211.10938,71.41699c.07227,.07178,.07227,.32373,0,.39551-.59961-.01172-.88672-.02393-1.46289-.02393-.64746,0-1.0791,.01221-1.66699,.02393-.07227-.07178-.07227-.32373,0-.39551,.83984-.03613,1.16309-.09619,1.16309-1.0918v-3.90967c0-.40771-.03613-.6958-.23926-.6958-.22852,0-.49219,.07227-1.04395,.2998-.10742-.07178-.15527-.19189-.17969-.32373,1.05566-.4917,1.69141-.7915,2.35059-1.19922,.04785,0,.07227,0,.07227,.06006-.02441,.15576-.03613,.88721-.03613,1.60693v4.16162c0,.99561,.2041,1.05566,1.04297,1.0918Z"/>
      <path d="M199.91602,85.80469c-.66016-.65967-1.05566-1.85889-1.05566-3.14209,0-2.375,1.12695-3.79004,2.31445-3.79004,.64746,0,1.15137,.35986,1.46387,.7793,.52734,.6958,.81543,1.71533,.81543,2.90283,0,2.81836-1.40332,3.75391-2.32715,3.75391-.46777,0-.875-.16797-1.21094-.50391Zm-.0127-3.01025c0,1.04346,.12012,3.09424,1.23535,3.09424,.21582,0,.80371-.10791,1.06738-1.09131,.16797-.61182,.2041-1.36719,.2041-2.4707,0-1.60742-.32324-2.51855-.69531-2.83057-.14355-.13184-.33594-.20361-.54004-.20361-.53906,0-1.27148,.55127-1.27148,3.50195Z"/>
      <path d="M205.29199,85.03711c.34766,0,.63574,.2876,.63574,.63574,0,.34766-.28809,.63574-.63574,.63574s-.63574-.28809-.63574-.63574c0-.34814,.28809-.63574,.63574-.63574Z"/>
      <path d="M209.39453,83.38184c-1.63086,0-2.18262-.92334-2.18262-1.95459,0-1.03174,.64746-2.55469,2.21875-2.55469,.92383,0,2.30273,.47949,2.30273,2.91455,0,.94727-.37207,2.03857-1.11523,2.90234-.67188,.7793-1.41504,1.2832-2.62695,1.64307-.0957-.06006-.14355-.16797-.14355-.31201,1.59473-.59961,2.3623-1.81104,2.68652-2.90234-.35938,.16797-.82715,.26367-1.13965,.26367Zm1.34375-1.63086c0-2.05078-.68359-2.4585-1.43945-2.4585-.58789,0-1.0918,.59961-1.0918,1.91895,0,.59961,.26465,1.75098,1.43945,1.75098,.2041,0,.59961-.01221,.99512-.27588,.07227-.34814,.09668-.67188,.09668-.93555Z"/>
    </g>
    <g>
      <path d="M224.94141,57.01709c.07227,.07178,.07227,.32373,0,.39551-.59961-.01172-.88672-.02393-1.46289-.02393-.64746,0-1.0791,.01221-1.66699,.02393-.07227-.07178-.07227-.32373,0-.39551,.83984-.03613,1.16309-.09619,1.16309-1.0918v-3.90967c0-.40771-.03516-.6958-.23926-.6958-.22852,0-.49219,.07227-1.04395,.2998-.10742-.07178-.15527-.19189-.17969-.32373,1.05566-.4917,1.69141-.7915,2.35059-1.19922,.04785,0,.07227,0,.07227,.06006-.02441,.15576-.03613,.88721-.03613,1.60693v4.16162c0,.99561,.2041,1.05566,1.04297,1.0918Z"/>
      <path d="M227.34375,56.2373c.34766,0,.63574,.28809,.63574,.63574s-.28809,.63574-.63574,.63574-.63574-.28809-.63574-.63574,.28809-.63574,.63574-.63574Z"/>
      <path d="M230.1875,57.00488c-.66016-.65967-1.05566-1.85889-1.05566-3.14209,0-2.375,1.12695-3.79004,2.31445-3.79004,.64746,0,1.15137,.35986,1.46387,.7793,.52734,.6958,.81543,1.71533,.81543,2.90283,0,2.81836-1.40332,3.75391-2.32715,3.75391-.46777,0-.875-.16797-1.21094-.50391Zm-.0127-3.01025c0,1.04346,.12012,3.09424,1.23535,3.09424,.21582,0,.80371-.10791,1.06738-1.09131,.16797-.61182,.2041-1.36719,.2041-2.4707,0-1.60693-.32324-2.51855-.69531-2.83057-.14355-.13184-.33594-.20361-.54004-.20361-.53906,0-1.27148,.55127-1.27148,3.50195Z"/>
      <path d="M221.96777,71.40479c-.66016-.65967-1.05566-1.85889-1.05566-3.14209,0-2.375,1.12695-3.79004,2.31445-3.79004,.64746,0,1.15137,.35986,1.46387,.7793,.52734,.6958,.81543,1.71533,.81543,2.90283,0,2.81836-1.40332,3.75391-2.32715,3.75391-.46777,0-.875-.16797-1.21094-.50391Zm-.0127-3.01025c0,1.04346,.12012,3.09424,1.23535,3.09424,.21582,0,.80371-.10791,1.06738-1.09131,.16797-.61182,.2041-1.36719,.2041-2.4707,0-1.60742-.32324-2.51855-.69531-2.83057-.14355-.13184-.33594-.20361-.54004-.20361-.53906,0-1.27148,.55127-1.27148,3.50195Z"/>
      <path d="M227.34375,70.63721c.34766,0,.63574,.2876,.63574,.63574,0,.34766-.28809,.63574-.63574,.63574s-.63574-.28809-.63574-.63574c0-.34814,.28809-.63574,.63574-.63574Z"/>
      <path d="M231.55469,64.47266c.97168,0,2.02637,.52783,2.02637,1.82275,0,.91162-.51562,1.43945-1.19922,2.09912l-1.21094,1.16309c-.06055,.06006-.8877,.87549-.8877,1.45117h2.13477c.43164,0,.63574-.2998,.83984-1.15137,.12012-.02393,.27539,0,.34766,.06006-.01172,.35986-.13184,1.25928-.28809,1.89502,0,0-.55176-.02393-.93555-.02393h-2.09863c-.38379,0-.99512,.02393-.99512,.02393,0-.70752,.19141-1.2832,1.36719-2.48242l.8877-.87549c.70703-.71973,.9834-1.34326,.9834-2.11084,0-1.15137-.6123-1.45117-1.04395-1.45117-.875,0-1.1875,.43164-1.1875,.73145,0,.0957,.07227,.20361,.0957,.2876,.02441,.08398,.04883,.15625,.04883,.25195,0,.26416-.36035,.47998-.56445,.47998-.25195,0-.47949-.21582-.47949-.46777,0-.71973,.82812-1.70312,2.15918-1.70312Z"/>
      <path d="M221.96777,85.80469c-.66016-.65967-1.05566-1.85889-1.05566-3.14209,0-2.375,1.12695-3.79004,2.31445-3.79004,.64746,0,1.15137,.35986,1.46387,.7793,.52734,.6958,.81543,1.71533,.81543,2.90283,0,2.81836-1.40332,3.75391-2.32715,3.75391-.46777,0-.875-.16797-1.21094-.50391Zm-.0127-3.01025c0,1.04346,.12012,3.09424,1.23535,3.09424,.21582,0,.80371-.10791,1.06738-1.09131,.16797-.61182,.2041-1.36719,.2041-2.4707,0-1.60693-.32324-2.51855-.69531-2.83057-.14355-.13184-.33594-.20361-.54004-.20361-.53906,0-1.27148,.55127-1.27148,3.50195Z"/>
      <path d="M227.34375,85.03711c.34766,0,.63574,.28809,.63574,.63574s-.28809,.63574-.63574,.63574-.63574-.28809-.63574-.63574,.28809-.63574,.63574-.63574Z"/>
      <path d="M229.65918,80.81543c-.13184,.01221-.25195,0-.38379-.03613,.09668-.62354,.22852-1.34326,.24023-1.91895,0-.03564,.01172-.03564,.04785-.03564,.21582,.04785,.19238,.16748,.59961,.16748h2.4707c.45605,0,.71973-.07178,.92383-.13184l.19141,.14404c-1.34277,3.27441-2.00293,5.26514-2.68652,7.3042l-.81543,.03564-.0957-.08398c.81543-1.82275,1.7627-4.16162,2.69824-6.48828h-2.14648c-.38379,0-.7793,.08398-1.04395,1.04346Z"/>
    </g>
    <path d="M196.24414,88.18604v.81787c-.58887-1.12012-1.0791-2.43066-1.47266-3.93311-.56055-2.13623-.99316-4.65527-1.29688-7.55713s-.45508-5.91406-.45508-9.03711c0-4.56641,.29785-8.73145,.89355-12.49512s1.37305-6.45557,2.33105-8.07617v.92822c-.47949,1.00195-.87305,2.37158-1.18066,4.10986s-.53711,3.94043-.68945,6.60645c-.15137,2.6665-.22754,5.45068-.22754,8.35254,0,3.15234,.06445,6.01758,.19336,8.59521,.10059,2.03271,.22363,3.66406,.36719,4.89404,.14453,1.22998,.33789,2.41211,.58203,3.54639,.24316,1.13428,.56152,2.2168,.95508,3.24805Z"/>
    <path d="M235.43749,49.09766v-.81787c.58887,1.12012,1.07911,2.43066,1.47266,3.93311,.56055,2.13623,.99316,4.65527,1.29688,7.55713s.45508,5.91406,.45508,9.03711c0,4.56641-.29785,8.73145-.89355,12.49512s-1.37305,6.45557-2.33106,8.07617v-.92822c.4795-1.00195,.87305-2.37158,1.18067-4.10986s.53711-3.94043,.68945-6.60645c.15137-2.6665,.22754-5.45068,.22754-8.35254,0-3.15234-.06445-6.01758-.19336-8.59521-.10059-2.03271-.22363-3.66406-.36719-4.89404-.14453-1.22998-.33789-2.41211-.58203-3.54639-.24316-1.13428-.56152-2.2168-.95508-3.24805Z"/>
  </g>
  <g id="uuid-bd64c309-4743-44f0-8966-4c46077955b0" data-name="Ebene 3">
    <g>
      <g>
        <line class="uuid-f97c1ab5-4f86-4dcd-b1d0-7a529f80a764" x1="70.86614" y1="49.28065" x2="164.04358" y2="49.28065"/>
        <path d="M170.07874,49.28065c-2.8398,1.05371-6.36328,2.85156-8.54735,4.75586l1.7202-4.75586-1.7202-4.75488c2.18407,1.90429,5.70755,3.70215,8.54735,4.75488Z"/>
      </g>
      <g>
        <line class="uuid-f97c1ab5-4f86-4dcd-b1d0-7a529f80a764" x1="170.07874" y1="88.00282" x2="76.9013" y2="88.00282"/>
        <path d="M70.86614,88.00282c2.8398-1.05371,6.36328-2.85156,8.54736-4.75587l-1.72021,4.75587,1.72021,4.75488c-2.18407-1.90429-5.70756-3.70215-8.54736-4.75488Z"/>
      </g>
    </g>
  </g>
  <g id="uuid-e930d04c-4f94-4d16-9c74-40812645da58" data-name="Ebene 4">
    <rect class="uuid-74c929b1-379a-45f3-995a-caf0a1e78710" width="240.94488" height="137.28346"/>
  </g>
</svg>